<svg width="16" height="16" viewBox="0 0 16 16" fill="none" xmlns="http://www.w3.org/2000/svg">
<path fill-rule="evenodd" clip-rule="evenodd" d="M3.80078 15.6138C2.90568 15.6138 2.04723 15.2582 1.4143 14.6253C0.78136 13.9923 0.425781 13.1339 0.425781 12.2388C0.425781 10.9954 1.55078 7.05778 3.80078 0.425781H5.48878L3.80078 8.86378C4.69589 8.86378 5.55433 9.21936 6.18727 9.8523C6.8202 10.4852 7.17578 11.3437 7.17578 12.2388C7.17578 13.1339 6.8202 13.9923 6.18727 14.6253C5.55433 15.2582 4.69589 15.6138 3.80078 15.6138ZM12.2388 15.6138C11.3437 15.6138 10.4852 15.2582 9.8523 14.6253C9.21936 13.9923 8.86378 13.1339 8.86378 12.2388C8.86378 10.9954 9.98878 7.05778 12.2388 0.425781H13.9258L12.2378 8.86378C13.1329 8.86378 13.9913 9.21936 14.6243 9.8523C15.2572 10.4852 15.6128 11.3437 15.6128 12.2388C15.6128 13.1339 15.2572 13.9923 14.6243 14.6253C13.9913 15.2582 13.1329 15.6138 12.2378 15.6138H12.2388Z" fill="white"/>
</svg>
