<svg width="108" height="77" viewBox="0 0 108 77" fill="none" xmlns="http://www.w3.org/2000/svg">
<path d="M77.3077 50.8823L77.3032 50.8853L72.856 53.9273L70.5529 50.1616L53.2034 21.8032L35.3966 50.2177L32.6923 54.4231L28.8462 51.21L28.928 51.0795L31.917 46.2563L33.0253 44.469L53.2034 11.9231L73.5631 44.8316L74.2233 45.8967L75.2197 47.5065L75.2242 47.514L77.3062 50.8808L77.3077 50.8823Z" fill="white"/>
<path d="M63.0771 42.6923H43.4617L47.1054 36.1538H59.1783L63.0771 42.6923Z" fill="white"/>
<path d="M64.9414 69.0005V70.9057H69.8676C70.1768 70.9057 70.2278 70.9499 70.2293 71.2624C70.2293 71.7247 70.2293 72.1865 70.2293 72.6478C70.2293 72.8947 70.1598 72.9633 69.9109 72.9633H64.9491V74.8731H71.1753C71.4844 74.8731 71.5339 74.9203 71.5339 75.2343C71.5339 75.6916 71.5339 76.1488 71.5339 76.6183C71.5339 76.856 71.4659 76.9231 71.2248 76.9231H63.0015C62.7681 76.9231 62.6924 76.8484 62.6924 76.6183C62.6924 73.4887 62.6924 70.3585 62.6924 67.2279C62.6924 67.0039 62.7728 66.9231 63.0015 66.9231H71.2294C71.4458 66.9231 71.5293 67.0054 71.5385 67.2157C71.5385 67.6984 71.5385 68.181 71.5385 68.6637C71.5385 68.9213 71.4674 68.9914 71.2078 68.9914H64.9414V69.0005Z" fill="white"/>
<path d="M100.714 68.9963V70.9033H105.646C105.955 70.9033 106 70.9505 106 71.245C106 71.7067 106 72.1685 106 72.6302C106 72.9063 105.941 72.9627 105.655 72.9627H100.719V74.8743H106.944C107.253 74.8743 107.306 74.9231 107.308 75.2328C107.308 75.6935 107.308 76.1552 107.308 76.618C107.308 76.856 107.24 76.9231 107.008 76.9231H98.7567C98.5418 76.9231 98.4614 76.8422 98.4614 76.6271C98.4614 73.4947 98.4614 70.3617 98.4614 67.2282C98.4614 67.0024 98.5418 66.9231 98.7706 66.9231H106.998C107.227 66.9231 107.308 67.0024 107.308 67.2282C107.308 67.7123 107.308 68.1954 107.308 68.6775C107.308 68.917 107.232 68.9826 106.984 68.9826H100.714V68.9963Z" fill="white"/>
<path d="M74.2337 71.9803C74.2337 70.4568 74.2337 68.9334 74.2337 67.4099C74.2296 67.3457 74.2388 67.2813 74.2606 67.221C74.2825 67.1606 74.3164 67.1057 74.3603 67.0598C74.4041 67.0139 74.4569 66.9781 74.5151 66.9547C74.5734 66.9313 74.6358 66.9208 74.6982 66.924C75.821 66.924 76.9454 66.9148 78.0667 66.9559C79.0289 66.9734 79.9687 67.2576 80.7873 67.7786C81.2343 68.0695 81.6187 68.4518 81.9166 68.9017C82.2146 69.3516 82.4198 69.8596 82.5196 70.3944C82.7808 71.5318 82.7451 72.7202 82.4161 73.8389C81.9575 75.3502 80.9249 76.2627 79.4662 76.6466C78.8656 76.7976 78.2512 76.8828 77.6333 76.901C76.5977 76.9421 75.5621 76.9132 74.5266 76.9132C74.2766 76.9132 74.2307 76.8614 74.2307 76.6085C74.2327 75.0617 74.2337 73.519 74.2337 71.9803ZM76.3876 68.9897V74.8581C77.2915 74.8581 78.188 74.9068 79.0505 74.5671C79.3998 74.4395 79.7111 74.2211 79.9542 73.9331C80.1974 73.6451 80.3641 73.2972 80.4381 72.9233C80.5863 72.272 80.5863 71.5942 80.4381 70.9428C80.2399 70.0394 79.6985 69.4712 78.8404 69.1939C78.043 68.9349 77.2235 68.9928 76.3876 68.9897Z" fill="white"/>
<path d="M92.7788 72.9583H91.5923C91.349 72.9583 91.2881 72.8883 91.2881 72.6431C91.2881 72.1603 91.2881 71.6791 91.2881 71.1963C91.2881 70.9725 91.355 70.9039 91.5771 70.9024C92.6251 70.9024 93.6747 70.9024 94.7227 70.9024C94.9128 70.9024 94.9919 70.9862 94.9919 71.1719C94.9919 72.6111 94.9919 74.0502 94.9843 75.4909C94.9727 75.5916 94.9226 75.6838 94.8444 75.7483C94.0634 76.4168 93.09 76.819 92.0654 76.8965C90.7284 77.0153 89.4795 76.7442 88.3981 75.9173C87.1569 74.9822 86.6017 73.6878 86.5439 72.1664C86.4937 70.8628 86.7964 69.6597 87.6558 68.6439C88.4756 67.6723 89.5419 67.1515 90.7892 66.9886C91.5122 66.8713 92.252 66.9119 92.958 67.1074C93.6639 67.303 94.3193 67.6489 94.8794 68.1216C94.9151 68.1446 94.9447 68.1759 94.9657 68.2129C94.9867 68.2499 94.9985 68.2914 94.9999 68.3339C95.0014 68.3764 94.9926 68.4186 94.9743 68.4569C94.9559 68.4953 94.9286 68.5286 94.8946 68.5541C94.5437 68.9044 94.1888 69.2531 93.8298 69.6003C93.6549 69.7739 93.5804 69.7694 93.3735 69.6232C92.3742 68.9105 91.2988 68.7947 90.1792 69.279C89.5024 69.5729 89.0901 70.1242 88.8894 70.8278C88.6277 71.7415 88.6536 72.6553 89.0841 73.5172C89.4719 74.2939 90.1488 74.6944 90.9809 74.8254C91.5288 74.9174 92.0914 74.8563 92.6069 74.6487C92.6639 74.633 92.7132 74.5969 92.7455 74.5472C92.7777 74.4975 92.7906 74.4378 92.7818 74.3792C92.7636 73.9116 92.7788 73.4456 92.7788 72.9583Z" fill="white"/>
<path d="M40.9362 72.9587H36.7637V76.5887C36.7637 76.8575 36.7091 76.9137 36.4514 76.9137H34.9018C34.6941 76.9137 34.6183 76.8356 34.6183 76.6215C34.6183 73.4858 34.6183 70.3502 34.6183 67.2145C34.6125 67.1756 34.6156 67.1358 34.6274 67.0983C34.6391 67.0609 34.6592 67.0268 34.686 66.9987C34.7128 66.9706 34.7456 66.9494 34.7817 66.9367C34.8179 66.924 34.8564 66.9201 34.8942 66.9254C35.437 66.9254 35.9813 66.9254 36.5256 66.9254C36.7136 66.9254 36.7667 67.0426 36.7667 67.2176C36.7667 68.3599 36.7667 69.5022 36.7667 70.6445V70.8851H40.9392V67.252C40.9392 66.9957 41.0074 66.9254 41.2576 66.9254H42.7859C43.0103 66.9254 43.077 66.9942 43.077 67.2379C43.077 70.3632 43.077 73.4916 43.077 76.6231C43.077 76.859 43.0133 76.9231 42.7829 76.9231H41.2515C40.9877 76.9231 40.9362 76.8715 40.9362 76.6106V72.9759V72.9587Z" fill="white"/>
<path d="M25.2295 73.2681V75.2481C25.2295 75.7016 25.2295 76.1567 25.2295 76.6103C25.2295 76.8605 25.1642 76.9231 24.9257 76.9231H23.3731C23.1407 76.9231 23.0769 76.8574 23.0769 76.6244C23.0769 73.4964 23.0769 70.3643 23.0769 67.228C23.0769 67.0387 23.1422 66.9245 23.3352 66.9245C25.1216 66.9245 26.9081 66.912 28.693 66.9605C29.6045 66.984 30.4035 67.3343 30.9717 68.1054C31.3674 68.6597 31.5664 69.3371 31.5353 70.0244C31.5262 71.1755 31.1434 72.1342 30.1483 72.7551C29.5698 73.0945 28.9121 73.2644 28.2464 73.2462C27.2879 73.2462 26.3293 73.2462 25.3692 73.2462C25.3373 73.2571 25.2963 73.2634 25.2295 73.2681ZM25.2295 71.1661C26.2761 71.1661 27.3015 71.1661 28.3269 71.1661C28.4508 71.1575 28.5729 71.1317 28.69 71.0894C29.1564 70.9487 29.3918 70.603 29.3964 70.0681C29.4168 69.8493 29.3578 69.6304 29.2307 69.4536C29.1037 69.2769 28.9175 69.1548 28.7082 69.111C28.483 69.0472 28.2507 69.0136 28.017 69.0109C27.142 68.9999 26.267 69.0109 25.392 69.0109C25.3376 69.0133 25.2834 69.0185 25.2295 69.0265V71.1661Z" fill="white"/>
<path d="M51.5439 66.9261C51.8132 66.9261 52.0826 66.937 52.3505 66.9261C52.4376 66.9143 52.5256 66.9377 52.5969 66.9916C52.6683 67.0454 52.7177 67.1257 52.7353 67.2164C53.3145 69.0252 53.8937 70.8339 54.4729 72.6427C54.8913 73.9498 55.3097 75.2559 55.728 76.561C55.8168 76.8388 55.771 76.9091 55.5001 76.9107C55.0028 76.9107 54.5055 76.9107 54.0082 76.9107C53.9315 76.9193 53.8545 76.8976 53.7921 76.8497C53.7297 76.8018 53.6865 76.7312 53.6707 76.6515C53.5109 76.141 53.3392 75.6352 53.1838 75.1232C53.174 75.0654 53.1431 75.0141 53.0976 74.9802C53.0522 74.9463 52.996 74.9326 52.9411 74.9421C52.0076 74.9505 51.0737 74.9505 50.1393 74.9421C50.1104 74.9375 50.081 74.9389 50.0526 74.9463C50.0242 74.9536 49.9976 74.9668 49.974 74.9851C49.9505 75.0034 49.9307 75.0263 49.9156 75.0527C49.9005 75.0791 49.8905 75.1084 49.8862 75.1388C49.7382 75.6306 49.5724 76.1161 49.4229 76.6078C49.4097 76.7035 49.3613 76.7899 49.2882 76.8483C49.2151 76.9068 49.1231 76.9325 49.0322 76.92C48.5423 76.9044 48.0524 76.92 47.561 76.92C47.3153 76.92 47.265 76.842 47.339 76.5984L50.3317 67.2539C50.419 66.9838 50.4797 66.9417 50.758 66.9417L51.5439 66.9261ZM51.5439 70.0716H51.4995C51.2035 71.0082 50.9074 71.9277 50.6114 72.8659H52.4556L51.5439 70.0716Z" fill="white"/>
<path d="M6.07322 74.9489H3.76573C3.50608 74.9489 3.24643 74.9614 2.99296 74.9489C2.95979 74.9419 2.92556 74.9419 2.89237 74.9487C2.85918 74.9556 2.82773 74.9693 2.79994 74.9889C2.77216 75.0085 2.74863 75.0336 2.73079 75.0627C2.71296 75.0918 2.70119 75.1243 2.69621 75.1581C2.54166 75.6437 2.3732 76.1231 2.21864 76.6072C2.20229 76.7044 2.1491 76.7914 2.07034 76.8497C1.99157 76.908 1.89343 76.9331 1.79672 76.9195C1.28514 76.9007 0.772024 76.9195 0.260451 76.9195C0.0147102 76.9195 -0.0486555 76.8367 0.0348035 76.6072C1.08062 73.4842 2.12591 70.3612 3.1707 67.2382C3.18773 67.1431 3.23974 67.0581 3.31629 67.0001C3.39284 66.9422 3.48825 66.9157 3.58336 66.9259C4.14387 66.9374 4.7049 66.9374 5.26644 66.9259C5.35714 66.9146 5.44878 66.9375 5.52379 66.9902C5.5988 67.043 5.65191 67.1218 5.67292 67.2117C6.71977 70.3492 7.76867 73.4852 8.81964 76.6197C8.88764 76.8242 8.82736 76.9117 8.60944 76.9117C8.08396 76.9117 7.55693 76.9023 7.03145 76.9117C6.94126 76.9231 6.85015 76.8993 6.77685 76.845C6.70355 76.7906 6.65362 76.71 6.63734 76.6197C6.45033 76.0716 6.26486 75.5219 6.07322 74.9489ZM4.41022 70.0067C4.08102 70.9967 3.77191 71.9289 3.46126 72.869H5.38391C5.05625 71.9196 4.74406 70.9936 4.41022 70.0067Z" fill="white"/>
<path d="M14.8317 74.868H19.6659C19.9459 74.868 20.0001 74.9243 20.0001 75.2139C20.0001 75.6835 20.0001 76.153 20.0001 76.6226C20.0001 76.8511 19.9293 76.9231 19.699 76.9231H12.9935C12.7616 76.9231 12.6924 76.8511 12.6924 76.6101C12.6924 73.4891 12.6924 70.3691 12.6924 67.2502C12.6924 66.9951 12.7601 66.9231 13.0085 66.9231H14.4854C14.7685 66.9231 14.8227 66.9794 14.8227 67.2674V74.868H14.8317Z" fill="white"/>
<path d="M27.3668 13.0975C23.9586 17.8472 21.9543 23.4595 21.5826 29.2939H27.0631C27.4084 24.8486 28.9028 20.5693 31.3997 16.8754L27.3668 13.0975ZM54.8131 0.0334245L54.6839 5.5021C58.155 5.74128 61.542 6.67883 64.642 8.25857C67.742 9.83831 70.4911 12.0277 72.7247 14.6956L76.4553 10.6472C73.7289 7.5356 70.4127 4.99553 66.6983 3.17396C62.984 1.35238 58.9454 0.285475 54.8161 0.0349451L54.8131 0.0334245ZM75.2325 47.6322L77.3211 51.003C77.3712 50.9423 77.4229 50.8815 77.473 50.8192L75.2325 47.6322ZM70.5465 50.283C66.3325 54.2261 60.9177 56.6417 55.1685 57.1431L54.9163 62.6467C59.2537 62.3684 63.4856 61.1897 67.3425 59.1858C71.1994 57.1819 74.5967 54.3967 77.3181 51.0076L72.8569 54.0457L70.5465 50.283ZM28.4149 50.9726C28.5106 51.0941 28.6094 51.2126 28.7081 51.3326L28.7901 51.202L28.4149 50.9726ZM35.2791 50.3392L32.7561 54.3571L28.8463 51.1538L28.7081 51.3326C31.524 54.7453 35.0313 57.5223 38.9987 59.4804C42.9662 61.4384 47.3036 62.5331 51.725 62.6923L51.9756 57.2236C45.7636 57.016 39.8355 54.5718 35.2822 50.3407L35.2791 50.3392ZM78.758 32.4839C78.5978 36.2779 77.6009 39.9894 75.8386 43.3529L76.033 43.2162L76.0755 43.2785L79.434 48.0545C82.3848 43.3802 84.0403 38.0055 84.2309 32.4809L78.758 32.4839ZM78.4543 13.178L74.6492 17.3099C76.9779 20.9047 78.3729 25.0238 78.7079 29.2939H84.1899C83.8187 23.493 81.8342 17.9112 78.4603 13.178H78.4543ZM29.3552 10.5956L33.3501 14.3355C35.6258 11.7171 38.4054 9.58368 41.5231 8.06241C44.6408 6.54114 48.0329 5.66317 51.4972 5.48083L51.6278 0C47.3923 0.165549 43.2347 1.18996 39.4071 3.01107C35.5795 4.83218 32.1617 7.41202 29.3613 10.594L29.3552 10.5956ZM27.0069 32.4855H21.5386C21.7384 38.2598 23.5373 43.8652 26.735 48.6773L29.9567 43.4031C28.1784 40.0265 27.1729 36.2968 27.0129 32.4839L27.0069 32.4855Z" fill="white"/>
</svg>
