<svg width="20" height="20" viewBox="0 0 20 20" fill="none" xmlns="http://www.w3.org/2000/svg">
<path fill-rule="evenodd" clip-rule="evenodd" d="M10 2C5.58172 2 2 5.58172 2 10C2 14.4183 5.58172 18 10 18C14.4183 18 18 14.4183 18 10C18 5.58172 14.4183 2 10 2ZM10 1.03312e-06C4.47715 5.50298e-07 -5.50298e-07 4.47715 -1.03312e-06 10C-1.51594e-06 15.5228 4.47715 20 10 20C15.5228 20 20 15.5228 20 10C20 4.47715 15.5228 1.51594e-06 10 1.03312e-06Z" fill="#809FE5"/>
<path fill-rule="evenodd" clip-rule="evenodd" d="M16.2072 4.20718L3.70718 16.7072L2.29297 15.293L14.793 2.79297L16.2072 4.20718Z" fill="#809FE5"/>
</svg>
