<svg width="48" height="48" viewBox="0 0 48 48" fill="none" xmlns="http://www.w3.org/2000/svg">
<path d="M42.4969 38.8041L42.4935 38.8064L39.1331 41.105L37.3929 38.2595L24.2832 16.8314L10.828 38.3019L8.78465 41.4796L5.87842 39.0517L5.9402 38.9531L8.19875 35.3086L9.03627 33.9581L24.2832 9.36572L39.6674 34.2321L40.1663 35.0369L40.9191 36.2532L40.9226 36.259L42.4958 38.8029L42.4969 38.8041Z" fill="white"/>
<path d="M31.7437 32.6159H16.9219L19.6751 27.6753H28.7977L31.7437 32.6159Z" fill="white"/>
<path d="M4.76065 10.2537C2.18535 13.8427 0.670835 18.0834 0.389974 22.492H4.5311C4.79206 19.133 5.92124 15.8995 7.80796 13.1083L4.76065 10.2537ZM25.4996 0.38219L25.402 4.51443C28.0248 4.69516 30.5841 5.40359 32.9265 6.59728C35.2689 7.79096 37.3462 9.44532 39.034 11.4612L41.8529 8.40218C39.7928 6.05098 37.2869 4.13166 34.4803 2.75524C31.6737 1.37882 28.622 0.572644 25.5019 0.383339L25.4996 0.38219ZM40.9289 36.3488L42.5071 38.8958C42.545 38.8499 42.584 38.804 42.6219 38.7569L40.9289 36.3488ZM37.3881 38.3518C34.2039 41.3313 30.1123 43.1565 25.7681 43.5354L25.5776 47.6941C28.855 47.4837 32.0527 46.5931 34.9671 45.0789C37.8814 43.5648 40.4485 41.4602 42.5048 38.8993L39.1338 41.195L37.3881 38.3518ZM5.55261 38.8729C5.62491 38.9647 5.69952 39.0542 5.77412 39.1449L5.8361 39.0462L5.55261 38.8729ZM10.7393 38.3942L8.83291 41.4303L5.87853 39.0098L5.77412 39.1449C7.90187 41.7236 10.5521 43.8219 13.5499 45.3015C16.5478 46.7811 19.8253 47.6082 23.1662 47.7285L23.3555 43.5963C18.6616 43.4393 14.1822 41.5924 10.7416 38.3954L10.7393 38.3942ZM43.5929 24.9025C43.4718 27.7692 42.7185 30.5737 41.3869 33.1153L41.5338 33.012L41.5659 33.059L44.1036 36.6679C46.3333 33.1359 47.5842 29.0747 47.7283 24.9002L43.5929 24.9025ZM43.3633 10.3145L40.4882 13.4366C42.2477 16.153 43.3019 19.2654 43.555 22.492H47.6973C47.4168 18.1087 45.9173 13.891 43.3679 10.3145H43.3633ZM6.26307 8.36315L9.28168 11.1892C11.0013 9.21062 13.1016 7.59855 15.4574 6.44905C17.8132 5.29955 20.3763 4.63614 22.994 4.49836L23.0927 0.356934C19.8923 0.482026 16.7507 1.25609 13.8585 2.63216C10.9663 4.00823 8.38376 5.95761 6.26766 8.36201L6.26307 8.36315ZM4.48863 24.9036H0.356689C0.507684 29.2668 1.86699 33.5024 4.28318 37.1385L6.71758 33.1532C5.3739 30.6018 4.61412 27.7836 4.49322 24.9025L4.48863 24.9036Z" fill="white"/>
</svg>
