<svg width="108" height="85" viewBox="0 0 108 85" fill="none" xmlns="http://www.w3.org/2000/svg">
<path d="M77.3077 50.882L77.3032 50.8851L72.856 53.9271L70.5529 50.1613L53.2034 21.803L35.3966 50.2175L32.6923 54.4228L28.8462 51.2098L28.928 51.0793L31.917 46.256L33.0253 44.4687L53.2034 11.9229L73.5631 44.8314L74.2233 45.8964L75.2197 47.5062L75.2242 47.5138L77.3062 50.8805L77.3077 50.882Z" fill="white"/>
<path d="M52.6922 81.5492V84.5741C52.4087 84.6972 52.2754 84.5559 52.3142 84.015C52.37 83.1916 52.4021 82.3635 52.4446 81.5386L52.6922 81.5492Z" fill="white"/>
<path d="M63.0771 42.6923H43.4617L47.1054 36.1538H59.1783L63.0771 42.6923Z" fill="white"/>
<path d="M64.9414 69.0003V70.9055H69.8676C70.1768 70.9055 70.2278 70.9497 70.2293 71.2621C70.2293 71.7245 70.2293 72.1863 70.2293 72.6476C70.2293 72.8945 70.1598 72.9631 69.9109 72.9631H64.9491V74.8728H71.1753C71.4844 74.8728 71.5339 74.9201 71.5339 75.2341C71.5339 75.6913 71.5339 76.1486 71.5339 76.618C71.5339 76.8558 71.4659 76.9228 71.2248 76.9228H63.0015C62.7681 76.9228 62.6924 76.8482 62.6924 76.618C62.6924 73.4884 62.6924 70.3583 62.6924 67.2277C62.6924 67.0036 62.7728 66.9229 63.0015 66.9229H71.2294C71.4458 66.9229 71.5293 67.0052 71.5385 67.2155C71.5385 67.6981 71.5385 68.1808 71.5385 68.6634C71.5385 68.921 71.4674 68.9911 71.2078 68.9911H64.9414V69.0003Z" fill="white"/>
<path d="M100.714 68.9961V70.903H105.646C105.955 70.903 106 70.9503 106 71.2447C106 71.7065 106 72.1682 106 72.6299C106 72.9061 105.941 72.9625 105.655 72.9625H100.719V74.874H106.944C107.253 74.874 107.306 74.9228 107.308 75.2325C107.308 75.6932 107.308 76.155 107.308 76.6177C107.308 76.8557 107.24 76.9228 107.008 76.9228H98.7567C98.5418 76.9228 98.4614 76.842 98.4614 76.6269C98.4614 73.4944 98.4614 70.3614 98.4614 67.228C98.4614 67.0022 98.5418 66.9229 98.7706 66.9229H106.998C107.227 66.9229 107.308 67.0022 107.308 67.228C107.308 67.7121 107.308 68.1952 107.308 68.6772C107.308 68.9167 107.232 68.9823 106.984 68.9823H100.714V68.9961Z" fill="white"/>
<path d="M74.2337 71.98C74.2337 70.4566 74.2337 68.9331 74.2337 67.4097C74.2296 67.3454 74.2388 67.281 74.2606 67.2207C74.2825 67.1604 74.3164 67.1055 74.3603 67.0596C74.4041 67.0137 74.4569 66.9779 74.5151 66.9545C74.5734 66.9311 74.6358 66.9206 74.6982 66.9237C75.821 66.9237 76.9454 66.9146 78.0667 66.9557C79.0289 66.9732 79.9687 67.2573 80.7873 67.7784C81.2343 68.0693 81.6187 68.4515 81.9166 68.9014C82.2146 69.3513 82.4198 69.8594 82.5196 70.3941C82.7808 71.5316 82.7451 72.72 82.4161 73.8386C81.9575 75.3499 80.9249 76.2624 79.4662 76.6463C78.8656 76.7973 78.2512 76.8826 77.6333 76.9008C76.5977 76.9419 75.5621 76.913 74.5266 76.913C74.2766 76.913 74.2307 76.8612 74.2307 76.6083C74.2327 75.0615 74.2337 73.5187 74.2337 71.98ZM76.3876 68.9895V74.8578C77.2915 74.8578 78.188 74.9066 79.0505 74.5668C79.3998 74.4393 79.7111 74.2209 79.9542 73.9329C80.1974 73.6449 80.3641 73.297 80.4381 72.9231C80.5863 72.2717 80.5863 71.5939 80.4381 70.9426C80.2399 70.0392 79.6985 69.4709 78.8404 69.1937C78.043 68.9347 77.2235 68.9925 76.3876 68.9895Z" fill="white"/>
<path d="M92.7788 72.9581H91.5923C91.349 72.9581 91.2881 72.888 91.2881 72.6428C91.2881 72.1601 91.2881 71.6788 91.2881 71.1961C91.2881 70.9722 91.355 70.9037 91.5771 70.9021C92.6251 70.9021 93.6747 70.9021 94.7227 70.9021C94.9128 70.9021 94.9919 70.9859 94.9919 71.1717C94.9919 72.6108 94.9919 74.05 94.9843 75.4906C94.9727 75.5913 94.9226 75.6836 94.8444 75.748C94.0634 76.4166 93.09 76.8188 92.0654 76.8963C90.7284 77.0151 89.4795 76.744 88.3981 75.9171C87.1569 74.982 86.6017 73.6875 86.5439 72.1662C86.4937 70.8626 86.7964 69.6595 87.6558 68.6437C88.4756 67.6721 89.5419 67.1513 90.7892 66.9883C91.5122 66.8711 92.252 66.9116 92.958 67.1072C93.6639 67.3028 94.3193 67.6487 94.8794 68.1213C94.9151 68.1444 94.9447 68.1757 94.9657 68.2127C94.9867 68.2496 94.9985 68.2911 94.9999 68.3336C95.0014 68.3761 94.9926 68.4183 94.9743 68.4567C94.9559 68.495 94.9286 68.5284 94.8946 68.5539C94.5437 68.9041 94.1888 69.2529 93.8298 69.6001C93.6549 69.7737 93.5804 69.7691 93.3735 69.6229C92.3742 68.9102 91.2988 68.7945 90.1792 69.2788C89.5024 69.5727 89.0901 70.124 88.8894 70.8275C88.6277 71.7413 88.6536 72.655 89.0841 73.517C89.4719 74.2936 90.1488 74.6942 90.9809 74.8251C91.5288 74.9171 92.0914 74.856 92.6069 74.6485C92.6639 74.6328 92.7132 74.5966 92.7455 74.5469C92.7777 74.4973 92.7906 74.4375 92.7818 74.3789C92.7636 73.9114 92.7788 73.4454 92.7788 72.9581Z" fill="white"/>
<path d="M40.9362 72.9585H36.7637V76.5884C36.7637 76.8572 36.7091 76.9135 36.4514 76.9135H34.9018C34.6941 76.9135 34.6183 76.8353 34.6183 76.6213C34.6183 73.4856 34.6183 70.3499 34.6183 67.2142C34.6125 67.1753 34.6156 67.1356 34.6274 67.0981C34.6391 67.0606 34.6592 67.0265 34.686 66.9985C34.7128 66.9704 34.7456 66.9492 34.7817 66.9364C34.8179 66.9237 34.8564 66.9199 34.8942 66.9252C35.437 66.9252 35.9813 66.9252 36.5256 66.9252C36.7136 66.9252 36.7667 67.0424 36.7667 67.2174C36.7667 68.3597 36.7667 69.5019 36.7667 70.6442V70.8849H40.9392V67.2518C40.9392 66.9955 41.0074 66.9252 41.2576 66.9252H42.7859C43.0103 66.9252 43.077 66.9939 43.077 67.2377C43.077 70.3629 43.077 73.4913 43.077 76.6228C43.077 76.8588 43.0133 76.9228 42.7829 76.9228H41.2515C40.9877 76.9228 40.9362 76.8713 40.9362 76.6103V72.9757V72.9585Z" fill="white"/>
<path d="M25.2295 73.2678V75.2478C25.2295 75.7014 25.2295 76.1565 25.2295 76.6101C25.2295 76.8603 25.1642 76.9228 24.9257 76.9228H23.3731C23.1407 76.9228 23.0769 76.8572 23.0769 76.6241C23.0769 73.4962 23.0769 70.364 23.0769 67.2277C23.0769 67.0385 23.1422 66.9243 23.3352 66.9243C25.1216 66.9243 26.9081 66.9118 28.693 66.9603C29.6045 66.9837 30.4035 67.3341 30.9717 68.1051C31.3674 68.6595 31.5664 69.3369 31.5353 70.0241C31.5262 71.1752 31.1434 72.1339 30.1483 72.7548C29.5698 73.0943 28.9121 73.2641 28.2464 73.2459C27.2879 73.2459 26.3293 73.2459 25.3692 73.2459C25.3373 73.2569 25.2963 73.2631 25.2295 73.2678ZM25.2295 71.1658C26.2761 71.1658 27.3015 71.1658 28.3269 71.1658C28.4508 71.1572 28.5729 71.1314 28.69 71.0892C29.1564 70.9484 29.3918 70.6028 29.3964 70.0679C29.4168 69.849 29.3578 69.6301 29.2307 69.4534C29.1037 69.2766 28.9175 69.1546 28.7082 69.1107C28.483 69.047 28.2507 69.0133 28.017 69.0106C27.142 68.9997 26.267 69.0106 25.392 69.0106C25.3376 69.013 25.2834 69.0183 25.2295 69.0263V71.1658Z" fill="white"/>
<path d="M51.5439 66.9258C51.8132 66.9258 52.0826 66.9367 52.3505 66.9258C52.4376 66.9141 52.5256 66.9375 52.5969 66.9913C52.6683 67.0452 52.7177 67.1255 52.7353 67.2162C53.3145 69.0249 53.8937 70.8337 54.4729 72.6424C54.8913 73.9496 55.3097 75.2557 55.728 76.5607C55.8168 76.8386 55.771 76.9088 55.5001 76.9104C55.0028 76.9104 54.5055 76.9104 54.0082 76.9104C53.9315 76.9191 53.8545 76.8974 53.7921 76.8495C53.7297 76.8016 53.6865 76.7309 53.6707 76.6513C53.5109 76.1408 53.3392 75.635 53.1838 75.123C53.174 75.0652 53.1431 75.0138 53.0976 74.9799C53.0522 74.946 52.996 74.9324 52.9411 74.9419C52.0076 74.9502 51.0737 74.9502 50.1393 74.9419C50.1104 74.9372 50.081 74.9386 50.0526 74.946C50.0242 74.9534 49.9976 74.9666 49.974 74.9849C49.9505 75.0031 49.9307 75.0261 49.9156 75.0525C49.9005 75.0789 49.8905 75.1081 49.8862 75.1386C49.7382 75.6303 49.5724 76.1158 49.4229 76.6076C49.4097 76.7033 49.3613 76.7897 49.2882 76.8481C49.2151 76.9065 49.1231 76.9323 49.0322 76.9198C48.5423 76.9042 48.0524 76.9198 47.561 76.9198C47.3153 76.9198 47.265 76.8417 47.339 76.5982L50.3317 67.2536C50.419 66.9836 50.4797 66.9414 50.758 66.9414L51.5439 66.9258ZM51.5439 70.0714H51.4995C51.2035 71.008 50.9074 71.9275 50.6114 72.8657H52.4556L51.5439 70.0714Z" fill="white"/>
<path d="M6.07322 74.9486H3.76573C3.50608 74.9486 3.24643 74.9611 2.99296 74.9486C2.95979 74.9417 2.92556 74.9416 2.89237 74.9485C2.85918 74.9554 2.82773 74.969 2.79994 74.9886C2.77216 75.0082 2.74863 75.0333 2.73079 75.0624C2.71296 75.0915 2.70119 75.124 2.69621 75.1579C2.54166 75.6435 2.3732 76.1229 2.21864 76.6069C2.20229 76.7042 2.1491 76.7912 2.07034 76.8495C1.99157 76.9078 1.89343 76.9328 1.79672 76.9192C1.28514 76.9005 0.772024 76.9192 0.260451 76.9192C0.0147102 76.9192 -0.0486555 76.8365 0.0348035 76.6069C1.08062 73.484 2.12591 70.361 3.1707 67.238C3.18773 67.1429 3.23974 67.0578 3.31629 66.9999C3.39284 66.942 3.48825 66.9155 3.58336 66.9257C4.14387 66.9371 4.7049 66.9371 5.26644 66.9257C5.35714 66.9144 5.44878 66.9373 5.52379 66.99C5.5988 67.0427 5.65191 67.1216 5.67292 67.2114C6.71977 70.349 7.76867 73.485 8.81964 76.6194C8.88764 76.824 8.82736 76.9114 8.60944 76.9114C8.08396 76.9114 7.55693 76.9021 7.03145 76.9114C6.94126 76.9229 6.85015 76.899 6.77685 76.8447C6.70355 76.7904 6.65362 76.7098 6.63734 76.6194C6.45033 76.0713 6.26486 75.5217 6.07322 74.9486ZM4.41022 70.0065C4.08102 70.9965 3.77191 71.9287 3.46126 72.8687H5.38391C5.05625 71.9193 4.74406 70.9934 4.41022 70.0065Z" fill="white"/>
<path d="M14.8317 74.8678H19.6659C19.9459 74.8678 20.0001 74.9241 20.0001 75.2137C20.0001 75.6832 20.0001 76.1528 20.0001 76.6223C20.0001 76.8508 19.9293 76.9228 19.699 76.9228H12.9935C12.7616 76.9228 12.6924 76.8509 12.6924 76.6098C12.6924 73.4888 12.6924 70.3689 12.6924 67.25C12.6924 66.9948 12.7601 66.9229 13.0085 66.9229H14.4854C14.7685 66.9229 14.8227 66.9792 14.8227 67.2672V74.8678H14.8317Z" fill="white"/>
<path d="M26.9258 83.5053V84.4767C26.9258 84.6155 26.9163 84.6155 26.7673 84.6155H26.3012C26.1681 84.6155 26.1538 84.603 26.1538 84.4878V82.445C26.1538 82.1827 26.1538 81.919 26.1538 81.6567C26.1538 81.5762 26.1808 81.5374 26.2806 81.5388C26.8894 81.5388 27.4981 81.5388 28.1052 81.5388C28.3913 81.5338 28.6695 81.6213 28.8867 81.7844C29.0644 81.9179 29.1777 82.1053 29.2038 82.309C29.2957 82.9724 28.8867 83.4053 28.213 83.4706C28.1877 83.4737 28.1628 83.4788 28.1385 83.4858L28.6807 84.0312L29.2307 84.578C29.1912 84.5932 29.1497 84.6039 29.1071 84.6099C28.8883 84.6099 28.668 84.6183 28.4508 84.6099C28.3752 84.602 28.3054 84.5704 28.2542 84.5211C27.9562 84.2241 27.655 83.9258 27.376 83.6149C27.3247 83.5563 27.2531 83.514 27.1719 83.4942C27.0906 83.4744 27.0043 83.4783 26.9258 83.5053ZM26.9258 82.8447C27.319 82.8447 27.7057 82.8599 28.091 82.8447C28.1406 82.8451 28.1897 82.836 28.2348 82.818C28.2799 82.7999 28.3199 82.7734 28.352 82.7403C28.3841 82.7072 28.4075 82.6683 28.4204 82.6263C28.4334 82.5844 28.4356 82.5405 28.427 82.4977C28.427 82.3312 28.3065 82.2341 28.0767 82.2021C28.0558 82.1981 28.0346 82.1953 28.0133 82.1938H26.9448C26.9448 82.1938 26.9337 82.1938 26.9258 82.2063V82.8447Z" fill="white"/>
<path d="M39.2418 82.1756C39.2418 82.3644 39.2418 82.5434 39.2418 82.7224C39.2418 82.7363 39.3023 82.7627 39.3358 82.7627C39.6543 82.7627 39.9887 82.7627 40.3168 82.7627C40.5223 82.7627 40.7277 82.7627 40.9347 82.7627C41.0669 82.7627 41.0781 82.7724 41.0781 82.8918C41.0781 83.0111 41.0781 83.1513 41.0781 83.2817C41.0781 83.3664 41.0399 83.3969 40.9459 83.3956H39.2514V83.9771H41.3791C41.5256 83.9771 41.5383 83.9854 41.5383 84.1159C41.5383 84.2463 41.5383 84.3823 41.5383 84.5156C41.5383 84.5864 41.5049 84.6155 41.4237 84.6155H38.5745C38.4933 84.6155 38.4614 84.5822 38.4614 84.5128C38.4614 83.5552 38.4614 82.5985 38.4614 81.6427C38.4614 81.5649 38.4996 81.5386 38.5841 81.5386H41.4093C41.5001 81.5386 41.5368 81.5677 41.5352 81.6482C41.5352 81.7842 41.5352 81.9202 41.5352 82.0563C41.5352 82.1465 41.4953 82.1742 41.395 82.1742H39.2418V82.1756Z" fill="white"/>
<path d="M44.4199 83.4885L45.3847 84.5821C45.3502 84.596 45.3142 84.6058 45.2773 84.6112C45.0849 84.6112 44.8911 84.6209 44.6987 84.6112C44.6296 84.6024 44.5659 84.5695 44.5189 84.5184C44.2623 84.2277 44.0044 83.9384 43.766 83.6352C43.7246 83.5723 43.6636 83.5247 43.5923 83.4997C43.521 83.4747 43.4433 83.4737 43.3714 83.4968C43.3714 83.5286 43.3714 83.5646 43.3714 83.5992V84.4769C43.3714 84.6029 43.3616 84.6153 43.232 84.6153H42.8318C42.7007 84.6153 42.6924 84.607 42.6924 84.4769V81.9851C42.6924 81.8743 42.6924 81.7622 42.6924 81.6515C42.6924 81.5781 42.7175 81.5435 42.7956 81.5435C43.3393 81.5435 43.8845 81.5324 44.4282 81.5435C44.8158 81.5546 45.1505 81.6985 45.3066 82.0875C45.5158 82.6136 45.3233 83.3791 44.4952 83.4719C44.4697 83.4759 44.4446 83.4815 44.4199 83.4885ZM43.37 82.8351C43.3798 82.8394 43.3901 82.8427 43.4007 82.8448C43.7172 82.8448 44.0337 82.8448 44.3515 82.8448C44.4163 82.8406 44.4794 82.8232 44.537 82.7935C44.5912 82.7654 44.6352 82.7213 44.6629 82.6672C44.6906 82.6131 44.7007 82.5518 44.6917 82.4918C44.6963 82.4356 44.6815 82.3796 44.6499 82.3328C44.6182 82.286 44.5716 82.2513 44.5175 82.2343C44.4271 82.2055 44.3334 82.1888 44.2386 82.1844C43.9751 82.1775 43.7102 82.1844 43.4467 82.1844C43.4221 82.1832 43.3974 82.1832 43.3728 82.1844L43.37 82.8351Z" fill="white"/>
<path d="M34.2355 83.11V81.7211C34.2355 81.5934 34.2912 81.5447 34.4391 81.5447C34.8018 81.5447 35.1645 81.5309 35.5256 81.5447C35.7726 81.5554 36.0173 81.5922 36.2541 81.6545C36.5018 81.7161 36.7251 81.8364 36.8992 82.0022C37.0733 82.1679 37.1914 82.3725 37.2404 82.5933C37.3356 82.932 37.3296 83.2864 37.2229 83.6225C37.0463 84.1697 36.6009 84.4558 35.9821 84.5655C35.7761 84.5967 35.5676 84.6134 35.3585 84.6155C35.0404 84.6155 34.7127 84.6155 34.3898 84.6155C34.2482 84.6155 34.2307 84.6044 34.2307 84.4766L34.2355 83.11ZM35.0213 83.9988C35.2695 83.9863 35.5081 83.9877 35.7419 83.96C35.9265 83.9479 36.1012 83.882 36.2379 83.773C36.3746 83.664 36.4654 83.518 36.4959 83.3586C36.5482 83.1523 36.5406 82.938 36.4736 82.735C36.4446 82.6387 36.3913 82.5493 36.3175 82.4733C36.2437 82.3974 36.1514 82.3368 36.0473 82.2961C35.7292 82.1572 35.3729 82.1795 35.0213 82.1864V83.9988Z" fill="white"/>
<path d="M47.621 84.614C47.138 84.6074 46.668 84.4789 46.2699 84.2446C46.1228 84.1546 46.1212 84.1325 46.2327 84.0107C46.3443 83.889 46.4299 83.7977 46.5253 83.6884C46.5319 83.6755 46.5423 83.6644 46.5554 83.656C46.5685 83.6476 46.5839 83.6422 46.6002 83.6404C46.6164 83.6386 46.6329 83.6404 46.6481 83.6457C46.6633 83.6509 46.6767 83.6594 46.6869 83.6704C46.8754 83.8002 47.0954 83.8924 47.3308 83.9403C47.5662 83.9881 47.8111 83.9905 48.0477 83.9471C48.1432 83.9326 48.2341 83.901 48.3144 83.8544C48.358 83.8317 48.3931 83.7988 48.4158 83.7597C48.4385 83.7206 48.4477 83.6767 48.4425 83.6333C48.4372 83.5898 48.4177 83.5486 48.3862 83.5142C48.3546 83.4799 48.3124 83.4539 48.2643 83.4393C48.076 83.3891 47.8821 83.3561 47.6857 83.3411C47.3582 83.3191 47.0387 83.243 46.7451 83.1169C46.6129 83.0631 46.4967 82.9843 46.4052 82.8865C46.3137 82.7887 46.2492 82.6745 46.2166 82.5524C46.1759 82.3971 46.1965 82.2346 46.2751 82.0904C46.3538 81.9462 46.4861 81.8284 46.6513 81.7554C46.9172 81.6295 47.214 81.5589 47.5176 81.5492C47.958 81.5129 48.402 81.5699 48.8106 81.7153C48.9365 81.7676 49.0576 81.8282 49.1726 81.8965C49.188 81.9034 49.2013 81.9135 49.2113 81.9257C49.2213 81.938 49.2276 81.9521 49.2298 81.9669C49.2321 81.9817 49.2301 81.9968 49.2241 82.0108C49.218 82.0248 49.2081 82.0373 49.1952 82.0473C49.0821 82.1746 48.9657 82.3019 48.8542 82.4292C48.8057 82.4846 48.7605 82.4804 48.7007 82.4417C48.2465 82.1497 47.739 82.1235 47.2105 82.2341C47.1614 82.2397 47.1151 82.2573 47.0773 82.2848C47.0394 82.3123 47.0116 82.3485 46.9972 82.3891C46.9888 82.414 46.9868 82.4402 46.9914 82.4658C46.996 82.4915 47.0071 82.5159 47.0238 82.5375C47.0406 82.5591 47.0627 82.5773 47.0885 82.5909C47.1143 82.6045 47.1433 82.613 47.1734 82.616C47.3705 82.6603 47.5758 82.6783 47.7762 82.7115C48.0289 82.7434 48.2789 82.7897 48.5245 82.8499C48.721 82.8923 48.8957 82.9888 49.0219 83.1245C49.148 83.2603 49.2186 83.4278 49.2227 83.6012C49.2415 83.7865 49.1883 83.972 49.0714 84.1289C48.9545 84.2857 48.7805 84.4052 48.5762 84.4687C48.2737 84.5754 47.9479 84.625 47.621 84.614Z" fill="white"/>
<path d="M31.9205 84.0055C31.7649 84.0055 31.5998 84.0055 31.441 84.0055C31.4254 84.003 31.4094 84.0033 31.3939 84.0065C31.3785 84.0097 31.3639 84.0158 31.3512 84.0242C31.3385 84.0327 31.3279 84.0434 31.32 84.0557C31.3122 84.068 31.3073 84.0816 31.3056 84.0956C31.2558 84.2343 31.1951 84.3826 31.1499 84.5268C31.1435 84.554 31.1259 84.578 31.1005 84.5942C31.0752 84.6104 31.0439 84.6175 31.0129 84.6141C30.8386 84.6141 30.6658 84.6141 30.4914 84.6141C30.384 84.6141 30.3653 84.5892 30.4011 84.4949L31.4815 81.646C31.4884 81.6128 31.5094 81.5833 31.5402 81.5637C31.5709 81.544 31.6091 81.5358 31.6465 81.5406C31.8271 81.5406 32.0077 81.5406 32.1883 81.5406C32.2087 81.5375 32.2295 81.5379 32.2497 81.542C32.2698 81.5461 32.2889 81.5537 32.3057 81.5645C32.3225 81.5752 32.3367 81.5888 32.3476 81.6044C32.3584 81.6201 32.3657 81.6375 32.3689 81.6557C32.6616 82.4339 32.9558 83.2116 33.2516 83.9889C33.3185 84.1636 33.3824 84.3396 33.4509 84.5143C33.4789 84.5864 33.4509 84.6155 33.3715 84.6155C33.1878 84.6155 33.0041 84.6155 32.8204 84.6155C32.7456 84.6155 32.7161 84.5781 32.6943 84.524C32.6398 84.3854 32.5791 84.2329 32.5308 84.0859C32.5288 84.0732 32.5238 84.061 32.5163 84.0501C32.5087 84.0392 32.4987 84.0298 32.4868 84.0225C32.475 84.0152 32.4616 84.0102 32.4474 84.0077C32.4333 84.0053 32.4188 84.0055 32.4047 84.0083C32.2412 84.0083 32.0762 84.0055 31.9205 84.0055ZM32.2521 83.3706L31.9252 82.5152H31.9003L31.5889 83.3678L32.2521 83.3706Z" fill="white"/>
<path d="M23.4568 82.1745H22.4675C22.3156 82.1745 22.3076 82.1745 22.3076 82.0359C22.3076 81.8974 22.3076 81.7699 22.3076 81.6383C22.3076 81.5677 22.3396 81.5386 22.4227 81.5386H25.2662C25.3557 81.5386 25.3861 81.5718 25.3845 81.6439C25.3845 81.7824 25.3845 81.9292 25.3845 82.0706C25.3845 82.1481 25.3477 82.1745 25.2614 82.1731C24.9625 82.1731 24.6636 82.1731 24.3647 82.1731H24.2368V84.477C24.2368 84.6155 24.2289 84.6155 24.077 84.6155H23.6071C23.476 84.6155 23.46 84.6016 23.46 84.4866V82.1772L23.4568 82.1745Z" fill="white"/>
<path d="M55.0126 82.8426C55.0126 83.1971 55.0126 83.522 55.0126 83.8469C55.0126 84.0616 55.0126 84.2706 55.0126 84.4896C55.0126 84.5729 54.9784 84.6082 54.879 84.6054C54.7308 84.6054 54.5825 84.6054 54.4343 84.6054C54.2307 84.6054 54.2307 84.6054 54.2307 84.4331V81.9145C54.2307 81.8255 54.2307 81.7366 54.2307 81.6476C54.2307 81.5586 54.2633 81.5402 54.3512 81.5416C54.8041 81.5416 54.6868 81.4936 54.98 81.7789C55.4578 82.2498 55.934 82.7206 56.4085 83.1914L56.5258 83.303V81.6772C56.5258 81.5572 56.5388 81.5473 56.6756 81.5459C56.8385 81.5459 57.0177 81.5459 57.1871 81.5459C57.2783 81.5459 57.3076 81.5769 57.3076 81.6504C57.3076 82.6024 57.3076 83.5535 57.3076 84.5037C57.3076 84.58 57.2734 84.6153 57.1855 84.6082H57.1741C57.0609 84.6249 56.9446 84.6127 56.8393 84.5731C56.7341 84.5335 56.6443 84.4681 56.5812 84.385C56.1072 83.8977 55.6038 83.4259 55.1233 82.9471L55.0126 82.8426Z" fill="white"/>
<path d="M78.5479 83.3108V81.6802C78.5479 81.5485 78.5479 81.5386 78.6807 81.5386C78.8136 81.5386 78.9664 81.5386 79.1207 81.5386C79.2035 81.5386 79.2306 81.5697 79.2306 81.6491C79.2306 82.6001 79.2306 83.5507 79.2306 84.5008C79.2306 84.5815 79.1964 84.6127 79.1164 84.6113C78.755 84.6028 78.8436 84.6608 78.5922 84.3803C78.1637 83.8987 77.7352 83.4156 77.3067 82.934L77.2282 82.849C77.2282 82.9028 77.221 82.9354 77.221 82.9694C77.221 83.4709 77.221 83.9723 77.221 84.4738C77.221 84.6027 77.2139 84.6155 77.0868 84.6155C76.9597 84.6155 76.794 84.6155 76.6469 84.6155C76.5726 84.6155 76.5383 84.5857 76.5383 84.5092C76.5383 83.5554 76.5383 82.602 76.5383 81.6491C76.5383 81.5726 76.5698 81.5386 76.6455 81.5428H76.6654C77.0225 81.5428 76.9397 81.4932 77.1896 81.7752L78.4751 83.23L78.5479 83.3108Z" fill="white"/>
<path d="M67.3069 83.2418C67.314 83.4702 67.2744 83.6976 67.1907 83.9106C67.1069 84.1236 66.9806 84.3179 66.8193 84.4819C66.6579 84.6458 66.4648 84.7762 66.2514 84.8652C66.038 84.9543 65.8087 85.0001 65.577 85.0001C65.3452 85.0001 65.1159 84.9543 64.9025 84.8652C64.6891 84.7762 64.496 84.6458 64.3347 84.4819C64.1733 84.3179 64.047 84.1236 63.9633 83.9106C63.8795 83.6976 63.84 83.4702 63.847 83.2418C63.847 82.2429 64.5566 81.5386 65.5634 81.5386C66.5702 81.5386 67.3053 82.2397 67.3069 83.2418ZM66.5366 83.2418C66.5366 83.2056 66.5366 83.1678 66.5366 83.1316C66.5274 82.9545 66.4679 82.7836 66.3649 82.6383C66.2619 82.493 66.1195 82.3792 65.9541 82.3098C65.7886 82.2405 65.6066 82.2184 65.4291 82.2462C65.2515 82.2739 65.0854 82.3503 64.9497 82.4666C64.8138 82.5852 64.7125 82.7374 64.6563 82.9075C64.6001 83.0776 64.5911 83.2594 64.6301 83.4341C64.6459 83.5807 64.6978 83.7212 64.7814 83.8434C64.865 83.9656 64.9776 84.0658 65.1095 84.1352C65.2606 84.2192 65.4321 84.2612 65.6055 84.2568C65.7789 84.2523 65.9479 84.2015 66.0944 84.1098C66.2408 84.0181 66.3593 83.889 66.4372 83.7361C66.5151 83.5833 66.5495 83.4124 66.5366 83.2418Z" fill="white"/>
<path d="M61.401 81.5386C61.7397 81.5453 62.0737 81.6184 62.3831 81.7535C62.4719 81.7998 62.5578 81.8513 62.6402 81.9077C62.654 81.9144 62.6659 81.9243 62.6748 81.9366C62.6838 81.9489 62.6895 81.9631 62.6915 81.9781C62.6935 81.993 62.6917 82.0082 62.6863 82.0224C62.6809 82.0365 62.672 82.0491 62.6604 82.059C62.5608 82.1877 62.4582 82.315 62.36 82.4437C62.3544 82.4549 62.3461 82.4645 62.3357 82.4718C62.3254 82.479 62.3134 82.4836 62.3008 82.4851C62.2882 82.4867 62.2753 82.4851 62.2635 82.4806C62.2517 82.4761 62.2411 82.4688 62.2329 82.4593C61.8516 82.1679 61.4198 82.1425 60.9691 82.2316C60.8247 82.2599 60.7323 82.3419 60.7265 82.4352C60.7207 82.5286 60.79 82.612 60.9532 82.6488C61.1105 82.6821 61.2697 82.7062 61.4299 82.7209C61.7218 82.7371 62.0073 82.8112 62.269 82.9387C62.3913 83.0116 62.4933 83.113 62.5658 83.2339C62.6383 83.3547 62.6791 83.4913 62.6845 83.6314C62.69 83.7715 62.6599 83.9107 62.597 84.0366C62.534 84.1626 62.4402 84.2713 62.3239 84.353C62.0794 84.5133 61.7934 84.6021 61.4992 84.609C61.0296 84.6449 60.5607 84.5318 60.1618 84.2865C59.9552 84.1592 59.9567 84.1451 60.1083 83.9612C60.1748 83.8778 60.2455 83.7972 60.3076 83.7109C60.3697 83.6246 60.4073 83.6289 60.4867 83.6883C60.6529 83.8156 60.8459 83.905 61.0518 83.95C61.2577 83.9951 61.4712 83.9945 61.6769 83.9485C61.7486 83.9321 61.8173 83.9049 61.8805 83.8679C61.923 83.8436 61.9568 83.8071 61.9772 83.7633C61.9976 83.7195 62.0037 83.6706 61.9946 83.6232C61.9916 83.5798 61.9746 83.5385 61.946 83.5052C61.9175 83.4719 61.8789 83.4483 61.8357 83.4379C61.6841 83.3975 61.5296 83.3682 61.3735 83.3503C61.0435 83.3315 60.7226 83.2375 60.4362 83.0759C60.0245 82.8185 59.909 82.3207 60.182 81.9742C60.3471 81.7792 60.5792 81.6499 60.8348 81.6107C61.0211 81.5796 61.2118 81.564 61.401 81.5386Z" fill="white"/>
<path d="M74.0387 84.0091C73.6684 84.0091 73.306 84.0091 72.9435 84.0091C72.9257 84.0128 72.9092 84.0202 72.8954 84.0308C72.8815 84.0414 72.8708 84.0549 72.8641 84.07C72.8021 84.2118 72.7448 84.3535 72.694 84.5094C72.6881 84.542 72.6682 84.5712 72.6385 84.5908C72.6088 84.6104 72.5716 84.6188 72.535 84.6143C72.3681 84.6143 72.2012 84.6143 72.0343 84.6143C71.9231 84.6143 71.904 84.5874 71.939 84.4952C72.2982 83.5456 72.6606 82.5973 73.0182 81.6477C73.0252 81.6138 73.0467 81.5836 73.0781 81.5635C73.1095 81.5434 73.1485 81.535 73.1867 81.54C73.3759 81.54 73.565 81.54 73.7526 81.54C73.7859 81.5364 73.8194 81.5441 73.8467 81.5614C73.874 81.5786 73.8932 81.6044 73.9004 81.6335C74.2628 82.5917 74.6258 83.5499 74.9893 84.508C75.0179 84.5846 74.9893 84.6143 74.905 84.6143C74.7238 84.6143 74.541 84.6143 74.3598 84.6143C74.2708 84.6143 74.2485 84.5619 74.2263 84.5052L74.0387 84.0091ZM73.4585 82.4882L73.1295 83.3684H73.7955L73.4585 82.4882Z" fill="white"/>
<path d="M83.0906 84.6117C82.65 84.6032 82.7725 84.6769 82.6134 84.3101C82.58 84.2293 82.5561 84.1458 82.518 84.0679C82.5094 84.0522 82.4967 84.0385 82.4809 84.0282C82.4651 84.0178 82.4467 84.011 82.4273 84.0084C82.0901 84.0084 81.7529 84.0084 81.4157 84.0084C81.352 84.0084 81.333 84.0353 81.317 84.0806C81.2646 84.2222 81.2073 84.3639 81.158 84.5055C81.149 84.5387 81.1268 84.5679 81.0955 84.5877C81.0642 84.6075 81.026 84.6165 80.9878 84.6131C80.8208 84.6131 80.6538 84.6131 80.4867 84.6131C80.3993 84.6131 80.3643 84.5891 80.3961 84.5055C80.7587 83.5509 81.1203 82.5959 81.4809 81.6404C81.4895 81.6096 81.5104 81.5825 81.5396 81.5643C81.5688 81.5461 81.6045 81.5379 81.6399 81.5412C81.8133 81.5412 81.9883 81.5497 82.1617 81.5412C82.185 81.5374 82.2089 81.5377 82.2321 81.5422C82.2553 81.5467 82.2772 81.5553 82.2966 81.5674C82.316 81.5795 82.3325 81.595 82.3451 81.6129C82.3577 81.6308 82.3662 81.6507 82.37 81.6716C82.6961 82.5426 83.0285 83.4121 83.3594 84.2832C83.388 84.361 83.4151 84.4404 83.4485 84.5168C83.4819 84.5933 83.4485 84.6103 83.3753 84.6117C83.283 84.6202 83.1876 84.6117 83.0906 84.6117ZM82.2555 83.3668C82.1458 83.0836 82.0376 82.8003 81.9374 82.5171H81.9135C81.807 82.8003 81.702 83.0765 81.5954 83.3668H82.2555Z" fill="white"/>
<path d="M69.5165 83.9772H69.6345C70.0996 83.9772 70.5647 83.9772 71.0299 83.9772C71.1254 83.9772 71.1577 84.0112 71.1535 84.1048C71.1535 84.2368 71.1535 84.3687 71.1535 84.5006C71.1535 84.5786 71.1296 84.6155 71.0467 84.6155H68.9544C68.8729 84.6155 68.8462 84.5786 68.8462 84.5006C68.8462 83.5549 68.8462 82.6064 68.8462 81.655C68.8462 81.5699 68.8757 81.5359 68.96 81.5387C69.1005 81.5387 69.2411 81.5387 69.3816 81.5387C69.5221 81.5387 69.5221 81.5387 69.5221 81.6706V83.9772H69.5165Z" fill="white"/>
<path d="M52.6907 83.0806V84.485C52.6907 84.6056 52.6778 84.6155 52.5411 84.6155C52.3801 84.6155 52.2192 84.6155 52.047 84.6155C51.9633 84.6155 51.9231 84.5914 51.9231 84.5119C51.9231 83.5549 51.9231 82.5969 51.9231 81.6379C51.9231 81.5642 51.9601 81.5372 52.039 81.5386C52.2112 81.5386 52.3833 81.5386 52.5555 81.5386C52.6601 81.5386 52.6923 81.5698 52.6923 81.6592C52.6875 82.1358 52.6907 82.6082 52.6907 83.0806Z" fill="white"/>
<path d="M27.3668 13.0975C23.9586 17.8472 21.9543 23.4595 21.5826 29.2939H27.0631C27.4084 24.8486 28.9028 20.5693 31.3997 16.8754L27.3668 13.0975ZM54.8131 0.0334245L54.6839 5.5021C58.155 5.74128 61.542 6.67883 64.642 8.25857C67.742 9.83831 70.4911 12.0277 72.7247 14.6956L76.4553 10.6472C73.7289 7.5356 70.4127 4.99553 66.6983 3.17396C62.984 1.35238 58.9454 0.285475 54.8161 0.0349451L54.8131 0.0334245ZM75.2325 47.6322L77.3211 51.003C77.3712 50.9423 77.4229 50.8815 77.473 50.8192L75.2325 47.6322ZM70.5465 50.283C66.3325 54.2261 60.9177 56.6417 55.1685 57.1431L54.9163 62.6467C59.2537 62.3684 63.4856 61.1897 67.3425 59.1858C71.1994 57.1819 74.5967 54.3967 77.3181 51.0076L72.8569 54.0457L70.5465 50.283ZM28.4149 50.9726C28.5106 51.0941 28.6094 51.2126 28.7081 51.3326L28.7901 51.202L28.4149 50.9726ZM35.2791 50.3392L32.7561 54.3571L28.8463 51.1538L28.7081 51.3326C31.524 54.7453 35.0313 57.5223 38.9987 59.4804C42.9662 61.4384 47.3036 62.5331 51.725 62.6923L51.9756 57.2236C45.7636 57.016 39.8355 54.5718 35.2822 50.3407L35.2791 50.3392ZM78.758 32.4839C78.5978 36.2779 77.6009 39.9894 75.8386 43.3529L76.033 43.2162L76.0755 43.2785L79.434 48.0545C82.3848 43.3802 84.0403 38.0055 84.2309 32.4809L78.758 32.4839ZM78.4543 13.178L74.6492 17.3099C76.9779 20.9047 78.3729 25.0238 78.7079 29.2939H84.1899C83.8187 23.493 81.8342 17.9112 78.4603 13.178H78.4543ZM29.3552 10.5956L33.3501 14.3355C35.6258 11.7171 38.4054 9.58368 41.5231 8.06241C44.6408 6.54114 48.0329 5.66317 51.4972 5.48083L51.6278 0C47.3923 0.165549 43.2347 1.18996 39.4071 3.01107C35.5795 4.83218 32.1617 7.41202 29.3613 10.594L29.3552 10.5956ZM27.0069 32.4855H21.5386C21.7384 38.2598 23.5373 43.8652 26.735 48.6773L29.9567 43.4031C28.1784 40.0265 27.1729 36.2968 27.0129 32.4839L27.0069 32.4855Z" fill="white"/>
</svg>
