<svg width="174" height="174" viewBox="0 0 174 174" fill="none" xmlns="http://www.w3.org/2000/svg">
<path d="M154.169 140.66L154.157 140.668L141.863 149.078L135.496 138.668L87.5349 60.2732L38.3094 138.823L30.8338 150.448L20.2014 141.566L20.4274 141.205L28.6903 127.872L31.7543 122.931L87.5349 32.9604L143.818 123.933L145.643 126.878L148.397 131.328L148.41 131.349L154.165 140.656L154.169 140.66Z" fill="white"/>
<path d="M114.83 118.019H60.6045L70.6773 99.9442H104.052L114.83 118.019Z" fill="white"/>
<path d="M16.1118 36.2069C6.69009 49.3372 1.14929 64.852 0.12177 80.9805H15.272C16.2267 68.6918 20.3578 56.8621 27.2603 46.6507L16.1118 36.2069ZM91.9846 0.0923993L91.6276 15.2101C101.223 15.8713 110.586 18.4631 119.156 22.8301C127.725 27.1972 135.325 33.2496 141.5 40.6247L151.813 29.4333C144.276 20.8315 135.108 13.8097 124.84 8.77414C114.572 3.73856 103.408 0.789173 91.993 0.0966028L91.9846 0.0923993ZM148.432 131.675L154.206 140.994C154.345 140.826 154.488 140.658 154.626 140.485L148.432 131.675ZM135.478 139.003C123.829 149.904 108.86 156.581 92.9671 157.967L92.2701 173.182C104.26 172.412 115.959 169.154 126.621 163.614C137.283 158.075 146.675 150.375 154.198 141.006L141.865 149.405L135.478 139.003ZM19.0091 140.91C19.2737 141.246 19.5466 141.573 19.8195 141.905L20.0463 141.544L19.0091 140.91ZM37.9847 139.159L31.01 150.266L20.2015 141.411L19.8195 141.905C27.6038 151.339 37.2995 159.016 48.2672 164.429C59.2348 169.841 71.2253 172.868 83.4479 173.308L84.1407 158.19C66.9681 157.616 50.5805 150.859 37.9931 139.163L37.9847 139.159ZM158.178 89.7992C157.736 100.287 154.98 110.547 150.108 119.846L150.645 119.468L150.763 119.64L160.047 132.843C168.204 119.921 172.781 105.063 173.308 89.7908L158.178 89.7992ZM157.339 36.4295L146.82 47.8517C153.257 57.7893 157.114 69.1761 158.04 80.9805H173.194C172.168 64.9445 166.682 49.5141 157.355 36.4295H157.339ZM21.6083 29.2906L32.6519 39.6294C38.943 32.391 46.6269 26.4933 55.2456 22.2879C63.8643 18.0824 73.2414 15.6554 82.818 15.1513L83.1791 0C71.4706 0.457648 59.977 3.28955 49.3959 8.32386C38.8149 13.3582 29.3668 20.4899 21.6251 29.2864L21.6083 29.2906ZM15.1166 89.8034H0C0.55241 105.766 5.52541 121.262 14.365 134.564L23.2712 119.984C18.3554 110.65 15.5757 100.34 15.1334 89.7992L15.1166 89.8034Z" fill="white"/>
</svg>
