<svg width="40" height="31" viewBox="0 0 40 31" fill="none" xmlns="http://www.w3.org/2000/svg">
<g clip-path="url(#clip0_68_72)">
<path d="M6.49737 23.6602C6.73876 23.4216 7.07067 23.2823 7.42269 23.2823H39.3463C39.9296 23.2823 40.2213 23.9785 39.8089 24.3863L33.5027 30.6221C33.2613 30.8608 32.9294 31 32.5773 31H0.653772C0.0704181 31 -0.221259 30.3038 0.191112 29.896L6.49737 23.6602Z" fill="url(#paint0_linear_68_72)"/>
<path d="M6.49719 0.377927C6.74864 0.139236 7.08054 0 7.42251 0H39.3461C39.9294 0 40.2211 0.696182 39.8087 1.10395L33.5025 7.33975C33.2611 7.57844 32.9292 7.71768 32.5771 7.71768H0.653589C0.070235 7.71768 -0.221442 7.02149 0.190929 6.61373L6.49719 0.377927Z" fill="url(#paint1_linear_68_72)"/>
<path d="M33.5027 11.9445C33.2613 11.7058 32.9294 11.5666 32.5773 11.5666H0.653772C0.0704181 11.5666 -0.221259 12.2628 0.191112 12.6705L6.49737 18.9063C6.73876 19.145 7.07067 19.2843 7.42269 19.2843H39.3463C39.9296 19.2843 40.2213 18.5881 39.8089 18.1803L33.5027 11.9445Z" fill="url(#paint2_linear_68_72)"/>
</g>
<defs>
<linearGradient id="paint0_linear_68_72" x1="36.2966" y1="-3.72511" x2="14.5906" y2="38.3204" gradientUnits="userSpaceOnUse">
<stop stop-color="#00FFA3"/>
<stop offset="1" stop-color="#DC1FFF"/>
</linearGradient>
<linearGradient id="paint1_linear_68_72" x1="26.6359" y1="-8.71236" x2="4.92987" y2="33.3332" gradientUnits="userSpaceOnUse">
<stop stop-color="#00FFA3"/>
<stop offset="1" stop-color="#DC1FFF"/>
</linearGradient>
<linearGradient id="paint2_linear_68_72" x1="31.4356" y1="-6.2346" x2="9.72957" y2="35.8109" gradientUnits="userSpaceOnUse">
<stop stop-color="#00FFA3"/>
<stop offset="1" stop-color="#DC1FFF"/>
</linearGradient>
<clipPath id="clip0_68_72">
<rect width="40" height="31" fill="white"/>
</clipPath>
</defs>
</svg>
