<svg width="17" height="17" viewBox="0 0 17 17" fill="none" xmlns="http://www.w3.org/2000/svg">
<path d="M16.836 7.0345C16.8151 7.22431 16.7207 7.39839 16.573 7.5195L12.9 11.1015L13.77 16.1605C13.7778 16.2269 13.7811 16.2937 13.78 16.3605C13.7839 16.4884 13.7467 16.6142 13.674 16.7195C13.6389 16.7678 13.5922 16.8066 13.5382 16.8323C13.4842 16.858 13.4247 16.8697 13.365 16.8665C13.2233 16.8612 13.0855 16.8192 12.965 16.7445L8.418 14.3595L3.875 16.7475C3.75375 16.8205 3.61635 16.8624 3.475 16.8695C3.41394 16.8734 3.35287 16.8621 3.29733 16.8364C3.24179 16.8107 3.19355 16.7716 3.157 16.7225C3.08393 16.6173 3.04644 16.4915 3.05 16.3635C3.05261 16.2965 3.05928 16.2297 3.07 16.1635L3.94 11.1045L0.253 7.5205C0.112007 7.39494 0.0219848 7.22201 0 7.0345C0 6.78517 0.189 6.63017 0.567 6.5695L5.646 5.8315L7.922 1.2275C8.05 0.950833 8.21533 0.8125 8.418 0.8125C8.62067 0.8125 8.78733 0.950833 8.918 1.2275L11.195 5.8275L16.274 6.5655C16.652 6.62617 16.841 6.78117 16.841 7.0305L16.836 7.0345Z" fill="#354ABD"/>
</svg>
