<svg width="118" height="118" viewBox="0 0 118 118" fill="none" xmlns="http://www.w3.org/2000/svg">
<circle cx="59" cy="59" r="58.5" fill="#003270" stroke="white"/>
<path d="M86.4333 80.8747L86.4281 80.8781L81.3698 84.3382L78.7502 80.055L59.0165 47.7995L38.7626 80.1188L35.6867 84.9021L31.312 81.2474L31.405 81.099L34.8048 75.6129L36.0655 73.58L59.0165 36.5616L82.1741 73.9925L82.925 75.204L84.0583 77.0349L84.0634 77.0436L86.4316 80.8729L86.4333 80.8747Z" fill="white"/>
<path d="M70.247 71.5592H47.936L52.0805 64.1222H65.8125L70.247 71.5592Z" fill="white"/>
<path d="M29.6292 37.8974C25.7526 43.2999 23.4729 49.6834 23.0501 56.3195H29.2837C29.6765 51.2634 31.3762 46.396 34.2163 42.1945L29.6292 37.8974ZM60.8472 23.038L60.7003 29.2582C64.6483 29.5303 68.5008 30.5967 72.0268 32.3935C75.5528 34.1903 78.6798 36.6806 81.2203 39.7151L85.4636 35.1104C82.3625 31.5712 78.5905 28.682 74.3658 26.6101C70.141 24.5382 65.5474 23.3247 60.8506 23.0397L60.8472 23.038ZM84.0728 77.178L86.4484 81.012C86.5054 80.9429 86.5641 80.8738 86.6211 80.8029L84.0728 77.178ZM78.7428 80.193C73.9496 84.6781 67.7907 87.4256 61.2515 87.9959L60.9647 94.2559C65.8981 93.9393 70.7116 92.5986 75.0985 90.3194C79.4854 88.0401 83.3495 84.8721 86.4449 81.0172L81.3706 84.4729L78.7428 80.193ZM30.8213 80.9775C30.9302 81.1157 31.0425 81.2505 31.1548 81.3869L31.2481 81.2384L30.8213 80.9775ZM38.6288 80.257L35.7591 84.8271L31.3119 81.1836L31.1548 81.3869C34.3576 85.2686 38.3469 88.4272 42.8596 90.6544C47.3722 92.8815 52.3057 94.1267 57.3347 94.3077L57.6198 88.0875C50.5541 87.8513 43.8114 85.0712 38.6323 80.2587L38.6288 80.257ZM88.0828 59.948C87.9005 64.2633 86.7666 68.4849 84.7621 72.3107L84.9833 72.1552L85.0316 72.226L88.8516 77.6583C92.2079 72.3417 94.0909 66.2284 94.3077 59.9445L88.0828 59.948ZM87.7372 37.989L83.4093 42.6887C86.058 46.7775 87.6447 51.4626 88.0257 56.3195H94.261C93.8388 49.7215 91.5817 43.3726 87.7441 37.989H87.7372ZM31.8908 35.0516L36.4347 39.3056C39.0231 36.3273 42.1847 33.9007 45.7309 32.1704C49.2771 30.44 53.1353 29.4414 57.0756 29.234L57.2242 23C52.4067 23.1883 47.6776 24.3535 43.324 26.4249C38.9704 28.4962 35.083 31.4306 31.8977 35.0499L31.8908 35.0516ZM29.2197 59.9497H23C23.2273 66.5176 25.2734 72.8933 28.9105 78.3667L32.575 72.3677C30.5523 68.5271 29.4087 64.2849 29.2267 59.948L29.2197 59.9497Z" fill="white"/>
</svg>
