<svg width="100" height="100" viewBox="0 0 100 100" fill="none" xmlns="http://www.w3.org/2000/svg">
<circle cx="50" cy="50" r="50" fill="#747ED2"/>
<path d="M74.7691 69.882L74.7646 69.8851L70.3174 72.9271L68.0144 69.1613L50.6648 40.803L32.858 69.2175L30.1538 73.4228L26.3076 70.2098L26.3894 70.0793L29.3784 65.256L30.4868 63.4687L50.6648 30.9229L71.0246 63.8314L71.6848 64.8964L72.6811 66.5062L72.6856 66.5138L74.7676 69.8805L74.7691 69.882Z" fill="white"/>
<path d="M60.5385 61.6923H40.9231L44.5668 55.1538H56.6397L60.5385 61.6923Z" fill="white"/>
<path d="M24.8283 32.0975C21.4201 36.8472 19.4157 42.4595 19.044 48.2939H24.5245C24.8698 43.8486 26.3642 39.5693 28.8611 35.8754L24.8283 32.0975ZM52.2745 19.0334L52.1454 24.5021C55.6164 24.7413 59.0034 25.6788 62.1034 27.2586C65.2034 28.8383 67.9526 31.0277 70.1861 33.6956L73.9167 29.6472C71.1903 26.5356 67.8741 23.9955 64.1598 22.174C60.4454 20.3524 56.4068 19.2855 52.2775 19.0349L52.2745 19.0334ZM72.6939 66.6322L74.7825 70.003C74.8327 69.9423 74.8843 69.8815 74.9344 69.8192L72.6939 66.6322ZM68.0079 69.283C63.7939 73.2261 58.3791 75.6417 52.6299 76.1431L52.3778 81.6467C56.7152 81.3684 60.9471 80.1897 64.8039 78.1858C68.6608 76.1819 72.0581 73.3967 74.7795 70.0076L70.3183 73.0457L68.0079 69.283ZM25.8764 69.9726C25.9721 70.0941 26.0708 70.2126 26.1695 70.3326L26.2515 70.202L25.8764 69.9726ZM32.7406 69.3392L30.2176 73.3571L26.3077 70.1538L26.1695 70.3326C28.9854 73.7453 32.4927 76.5223 36.4602 78.4804C40.4276 80.4384 44.765 81.5331 49.1864 81.6923L49.437 76.2236C43.225 76.016 37.297 73.5718 32.7436 69.3407L32.7406 69.3392ZM76.2195 51.4839C76.0592 55.2779 75.0623 58.9894 73.3 62.3529L73.4944 62.2162L73.537 62.2785L76.8954 67.0545C79.8462 62.3802 81.5017 57.0055 81.6923 51.4809L76.2195 51.4839ZM75.9157 32.178L72.1107 36.3099C74.4393 39.9047 75.8343 44.0238 76.1693 48.2939H81.6513C81.2801 42.493 79.2956 36.9112 75.9217 32.178H75.9157ZM26.8166 29.5956L30.8115 33.3355C33.0872 30.7171 35.8668 28.5837 38.9845 27.0624C42.1023 25.5411 45.4943 24.6632 48.9586 24.4808L49.0892 19C44.8538 19.1655 40.6961 20.19 36.8685 22.0111C33.0409 23.8322 29.6232 26.412 26.8227 29.594L26.8166 29.5956ZM24.4683 51.4855H19C19.1998 57.2598 20.9988 62.8652 24.1964 67.6773L27.4181 62.4031C25.6399 59.0265 24.6344 55.2968 24.4744 51.4839L24.4683 51.4855Z" fill="white"/>
</svg>
