<svg width="9" height="15" viewBox="0 0 9 15" fill="none" xmlns="http://www.w3.org/2000/svg">
<path d="M3.42762 10.375L2.90646 7.4375C3.42762 7.29861 3.89532 7.14583 4.30958 6.97917C4.72383 6.79861 5.07795 6.61111 5.37194 6.41667C5.67929 6.20833 5.93318 5.98611 6.13363 5.75C6.33408 5.51389 6.48107 5.26389 6.57461 5C6.68151 4.72222 6.73497 4.43056 6.73497 4.125C6.73497 3.72222 6.62806 3.36111 6.41425 3.04167C6.21381 2.72222 5.93319 2.47222 5.57238 2.29167C5.21158 2.11111 4.80401 2.02083 4.34967 2.02083C3.81514 2.02083 3.29399 2.21528 2.78619 2.60417C2.29176 2.97917 1.86414 3.51389 1.50334 4.20833L0 2.89583C0.57461 1.97917 1.25612 1.27083 2.04454 0.770833C2.84633 0.256944 3.68151 0 4.55011 0C5.39198 0 6.14699 0.180556 6.81515 0.541667C7.4833 0.902779 8.01114 1.39583 8.39866 2.02083C8.79955 2.64583 9 3.34722 9 4.125C9 4.58333 8.90646 5.03472 8.71938 5.47917C8.54566 5.90972 8.29176 6.31944 7.95768 6.70833C7.62361 7.09722 7.2294 7.44444 6.77506 7.75C6.33408 8.05556 5.84633 8.30556 5.3118 8.5L4.97105 10.375H3.42762ZM2.72606 13.4375C2.72606 12.9792 2.85301 12.6042 3.1069 12.3125C3.3608 12.0208 3.69488 11.875 4.10913 11.875C4.55011 11.875 4.89087 12.0139 5.1314 12.2917C5.37194 12.5556 5.4922 12.9375 5.4922 13.4375C5.4922 13.8958 5.36526 14.2708 5.11136 14.5625C4.85746 14.8542 4.52339 15 4.10913 15C3.66815 15 3.32739 14.8681 3.08686 14.6042C2.84633 14.3264 2.72606 13.9375 2.72606 13.4375Z" fill="white"/>
</svg>
